<svg width="512" height="512" viewBox="0 0 512 512" fill="none" xmlns="http://www.w3.org/2000/svg">
  <rect width="512" height="512" rx="110" fill="#7a2235"/>
  <!-- Gift box base -->
  <rect x="88" y="268" width="336" height="176" rx="20" fill="#fdf6ef"/>
  <!-- Gift box lid -->
  <rect x="72" y="212" width="368" height="72" rx="18" fill="#fce8d5"/>
  <!-- Ribbon vertical on base -->
  <rect x="228" y="268" width="56" height="176" rx="0" fill="#b8893a" opacity="0.85"/>
  <!-- Ribbon horizontal on lid -->
  <rect x="72" y="232" width="368" height="32" rx="0" fill="#b8893a" opacity="0.85"/>
  <!-- Bow left loop -->
  <ellipse cx="196" cy="194" rx="72" ry="38" fill="#d4a855" transform="rotate(-20 196 194)"/>
  <ellipse cx="196" cy="194" rx="52" ry="26" fill="#b8893a" transform="rotate(-20 196 194)"/>
  <!-- Bow right loop -->
  <ellipse cx="316" cy="194" rx="72" ry="38" fill="#d4a855" transform="rotate(20 316 194)"/>
  <ellipse cx="316" cy="194" rx="52" ry="26" fill="#b8893a" transform="rotate(20 316 194)"/>
  <!-- Bow center knot -->
  <ellipse cx="256" cy="210" rx="34" ry="26" fill="#e8c070"/>
  <ellipse cx="256" cy="210" rx="22" ry="18" fill="#b8893a"/>
  <!-- Stars / sparkles -->
  <circle cx="140" cy="320" r="10" fill="#b8893a" opacity="0.5"/>
  <circle cx="372" cy="340" r="8" fill="#b8893a" opacity="0.5"/>
  <circle cx="160" cy="400" r="7" fill="#d4a855" opacity="0.6"/>
  <circle cx="360" cy="390" r="9" fill="#d4a855" opacity="0.6"/>
  <!-- Heart on gift box front -->
  <path d="M256 380 C256 380 210 348 210 318 C210 302 222 292 236 292 C244 292 252 298 256 304 C260 298 268 292 276 292 C290 292 302 302 302 318 C302 348 256 380 256 380Z" fill="#c0392b" opacity="0.7"/>
</svg>
